<svg xmlns="http://www.w3.org/2000/svg" viewBox="0 0 48 48"><defs><style>.cls-1{fill:#fff;}.cls-2{fill:#65b1fc;}.cls-3{fill:#256494;}</style></defs><title>12-Mobile Game</title><g id="_12-Mobile_Game" data-name="12-Mobile Game"><polygon class="cls-1" points="41 9 41 24 7 24 7 9 10 9 38 9 41 9"/><path class="cls-2" d="M41,3V9H7V3A2.006,2.006,0,0,1,9,1H39A2.006,2.006,0,0,1,41,3Z"/><circle class="cls-1" cx="36" cy="41" r="2"/><circle class="cls-1" cx="41" cy="36" r="2"/><circle class="cls-1" cx="34" cy="34" r="2"/><path class="cls-1" d="M16,36v2a1,1,0,0,1-1,1H13v2a1,1,0,0,1-1,1H10a1,1,0,0,1-1-1V39H7a1,1,0,0,1-1-1V36a1,1,0,0,1,1-1H9V33a1,1,0,0,1,1-1h2a1,1,0,0,1,1,1v2h2A1,1,0,0,1,16,36Z"/><polygon class="cls-1" points="27 25 27 27 21 27 21 25 21 23 24 23 27 23 27 25"/><path class="cls-2" d="M37,27A10,10,0,1,1,27,37H21A10,10,0,1,1,11,27H37Zm6,9a2,2,0,1,0-2,2A2.006,2.006,0,0,0,43,36Zm-5,5a2,2,0,1,0-2,2A2.006,2.006,0,0,0,38,41Zm-2-7a2,2,0,1,0-2,2A2.006,2.006,0,0,0,36,34ZM16,38V36a1,1,0,0,0-1-1H13V33a1,1,0,0,0-1-1H10a1,1,0,0,0-1,1v2H7a1,1,0,0,0-1,1v2a1,1,0,0,0,1,1H9v2a1,1,0,0,0,1,1h2a1,1,0,0,0,1-1V39h2A1,1,0,0,0,16,38Z"/><path class="cls-3" d="M8,10H40V24h2V3a3,3,0,0,0-3-3H9A3,3,0,0,0,6,3V24H8ZM9,2H39a1,1,0,0,1,1,1V8H8V3A1,1,0,0,1,9,2Z"/><rect class="cls-3" x="16" y="4" width="12" height="2"/><rect class="cls-3" x="30" y="4" width="2" height="2"/><path class="cls-3" d="M37,26H11A11,11,0,1,0,21.955,38h4.09A11,11,0,1,0,37,26Zm0,20a9.011,9.011,0,0,1-9-9,1,1,0,0,0-1-1H21a1,1,0,0,0-1,1,9,9,0,1,1-9-9H37a9,9,0,0,1,0,18Z"/><path class="cls-3" d="M28,25V23a1,1,0,0,0-1-1H21a1,1,0,0,0-1,1v2h2V24h4v1Z"/><path class="cls-3" d="M15,34H14V33a2,2,0,0,0-2-2H10a2,2,0,0,0-2,2v1H7a2,2,0,0,0-2,2v2a2,2,0,0,0,2,2H8v1a2,2,0,0,0,2,2h2a2,2,0,0,0,2-2V40h1a2,2,0,0,0,2-2V36A2,2,0,0,0,15,34Zm0,4H13a1,1,0,0,0-1,1v2H10V39a1,1,0,0,0-1-1H7V36H9a1,1,0,0,0,1-1V33h2v2a1,1,0,0,0,1,1h2Z"/><path class="cls-3" d="M36,38a3,3,0,1,0,3,3A3,3,0,0,0,36,38Zm0,4a1,1,0,1,1,1-1A1,1,0,0,1,36,42Z"/><path class="cls-3" d="M41,33a3,3,0,1,0,3,3A3,3,0,0,0,41,33Zm0,4a1,1,0,1,1,1-1A1,1,0,0,1,41,37Z"/><path class="cls-3" d="M37,34a3,3,0,1,0-3,3A3,3,0,0,0,37,34Zm-4,0a1,1,0,1,1,1,1A1,1,0,0,1,33,34Z"/><rect class="cls-3" x="19" y="30" width="10" height="2"/><rect class="cls-3" x="13" y="13" width="2" height="2"/><rect class="cls-3" x="33" y="13" width="2" height="2"/><polygon class="cls-3" points="30 13 18 13 18 15 23 15 23 20 25 20 25 15 30 15 30 13"/></g></svg>